<?xml version="1.0" encoding="iso-8859-1"?>
<!-- Generator: Adobe Illustrator 19.0.0, SVG Export Plug-In . SVG Version: 6.00 Build 0)  -->
<svg version="1.1" id="Capa_1" xmlns="http://www.w3.org/2000/svg" xmlns:xlink="http://www.w3.org/1999/xlink" x="0px" y="0px"
	 viewBox="0 0 512 512" style="enable-background:new 0 0 512 512;" xml:space="preserve">
<circle style="fill:#39375E;" cx="256" cy="256" r="256"/>
<g>
	<path style="fill:#676789;" d="M490.154,226.583L490.154,226.583c0-8.284-6.716-15-15-15H304.56c-8.284,0-15,6.716-15,15l0,0
		c0,8.284-6.716,15-15,15h-43.116c-8.284,0-15,6.716-15,15l0,0c0,8.284,6.716,15,15,15h4.978c8.284,0,15,6.716,15,15l0,0
		c0,8.284,6.716,15,15,15h174.045c8.284,0,15-6.716,15-15l0,0c0-8.284-6.716-15-15-15h-8.428c-8.284,0-15-6.716-15-15l0,0
		c0-8.284,6.716-15,15-15h43.116C483.439,241.583,490.154,234.868,490.154,226.583z"/>
	<path style="fill:#676789;" d="M85.621,148.227L85.621,148.227c0,8.284-6.716,15-15,15H54.08c-8.284,0-15,6.716-15,15l0,0
		c0,8.284,6.716,15,15,15h170.594c8.284,0,15-6.716,15-15l0,0c0-8.284,6.716-15,15-15h16.541c8.284,0,15-6.716,15-15l0,0
		c0-8.284-6.716-15-15-15H100.621C92.337,133.227,85.621,139.943,85.621,148.227z"/>
</g>
<path style="fill:#70D587;" d="M65.503,427c46.865,52.174,114.844,85,190.497,85s143.632-32.826,190.497-85H65.503z"/>
<rect x="174.79" y="259.54" style="fill:#F3D75C;" width="198.66" height="178.6"/>
<polygon style="fill:#E8C63A;" points="373.449,259.536 248.894,259.536 292.819,438.136 373.449,438.136 "/>
<path style="fill:#DD544C;" d="M265.565,43.772l19.078-31.352c2.346-3.855,1.122-8.882-2.733-11.228l0,0
	c-3.855-2.346-8.882-1.123-11.228,2.733l-14.049,23.087c-0.289,0.475-0.979,0.475-1.269,0L241.317,3.925
	c-2.346-3.855-7.373-5.079-11.228-2.733l0,0c-3.855,2.346-5.079,7.373-2.733,11.228l19.078,31.352H265.565z"/>
<path style="fill:#FFFBEB;" d="M448.49,424.906c-3.82,4.35-7.78,8.57-11.88,12.66l0.26,0.57H314.33L256,281.016v157.12H75.97
	c-2.01-1.99-3.99-4.01-5.93-6.06c-5.18-5.48-10.13-11.18-14.81-17.1c-6.58-8.3-12.65-17.02-18.18-26.11l206.26-344.03
	c0.63-1.05,1.35-1.98,2.15-2.79c5.73-5.87,15.35-5.87,21.08,0c0.8,0.81,1.52,1.74,2.15,2.79l206.26,344.03
	C467.17,401.656,458.31,413.716,448.49,424.906z"/>
<g>
	<path style="fill:#D8E0C9;" d="M256,281.016l58.334,157.12l69.602-29.421c1.83-0.774,1.725-3.402-0.165-4.015
		C365.259,398.69,305.972,373.074,256,281.016z"/>
	<path style="fill:#D8E0C9;" d="M209.09,178.156L70.04,432.076c-5.18-5.48-10.13-11.18-14.81-17.1L209.09,178.156z"/>
	<polygon style="fill:#D8E0C9;" points="167.023,438.136 203.261,341.07 185.142,438.136 	"/>
	<path style="fill:#D8E0C9;" d="M448.49,424.906c-3.82,4.35-7.78,8.57-11.88,12.66l-63.16-139.71l-0.65-1.44l0.65,1.1
		L448.49,424.906z"/>
	<polygon style="fill:#D8E0C9;" points="260.853,119.114 332.035,327.481 320.625,262.771 	"/>
</g>
<g>
</g>
<g>
</g>
<g>
</g>
<g>
</g>
<g>
</g>
<g>
</g>
<g>
</g>
<g>
</g>
<g>
</g>
<g>
</g>
<g>
</g>
<g>
</g>
<g>
</g>
<g>
</g>
<g>
</g>
</svg>
